<svg xmlns="http://www.w3.org/2000/svg" version="1.1" width="600px" height="600px" viewBox="0 0 200 200" style="overflow:hidden!important;"><g id="svga-group-wrapper"><g id="svga-group-backs-single"></g><g id="svga-group-humanwrap-move" transform="matrix(1,0,0,1,0,0)"><g id="svga-group-humanwrap" transform="matrix(0.9499997000000001,0,0,0.9499997000000001,4.949065529481118,5.677633686416797)"><g id="svga-group-hair-back-move" transform="matrix(0.9986295104026794,-0.0523359589278698,0.0523359589278698,0.9986295104026794,-7.189985275268555,5.425464630126953)"><g id="svga-group-hair-back"><path id="SvgjsPath12524" d="M81.9 28.3s36.8-8.4 46.4-4.5 16.8 9 21 21.9 2.1 38.6 1.8 52.4 4.5 26.9 4.5 26.9c-4.2-4.8-7.5-13.8-7.5-13.8 0 9.6 9.3 28.7 9.3 28.7-5.7-3.3-15.3-18-15.3-18 0 5.7 4.8 18.3 4.8 18.3-4.5-3.3-9.9-11.7-9.9-11.7.6 6 3.6 18.6 3.6 18.6-4.5-3.6-10.5-16.2-10.5-16.2 0 4.5.9 12.6.9 12.6-4.2-4.5-5.1-8.1-5.1-8.1.3 8.7 3.9 19.5 3.9 19.5-3-2.7-6.9-6-6.9-6s.9 7.8.9 9c0 7.2-10.8-14.1-10.8-14.1 0 3.3 1.8 15.6 1.8 15.6-3-3.6-10.2-11.7-10.2-11.7l-.6 12-8.4-10.8-2.7 7.2-2.1-6.9-5.7 9.9-.9-12.9-10.5 9.3.9-9-5.1 7.8c1.2-4.2 2.4-13.8 2.4-13.8l-7.8 8.1c2.1-4.5 3.3-16.8 3.3-16.8-3 6-12.3 13.8-12.3 13.8.9-3.9 1.2-8.7 1.2-8.7l-7.8 7.5c5.4-8.7 6.3-18.6 6.3-18.6L44 134.2c4.8-9.3 6.3-21.6 6.3-21.6-3.3 4.8-10.2 9-10.2 9 8.7-9.6 8.4-33.8 9.9-59.9 1.5-26 13.8-29.3 13.8-29.3l18.1-4.1z" fill="#ffffff" stroke-width="none" opacity="1"></path><path id="SvgjsPath12525" d="M104 160.7c-.3 0-.6-.1-.8-.4l-7.3-9.4-2.1 5.5c-.2.4-.5.7-1 .6-.4 0-.8-.3-.9-.7l-1.4-4.7-4.5 7.9c-.2.4-.7.6-1.1.5s-.7-.5-.8-.9l-.8-10.8-9 7.9c-.3.3-.8.3-1.1.1-.4-.2-.6-.6-.5-1l.5-4.9-2.8 4.4c-.3.4-.8.6-1.3.4-.4-.2-.7-.7-.5-1.2.7-2.6 1.5-7.4 2-10.6l-5.7 5.9c-.3.4-.9.4-1.3.1-.4-.3-.5-.8-.3-1.2 1.2-2.6 2.2-8.2 2.7-12.2-3.9 5.1-9.8 10.1-10.1 10.4-.3.3-.8.3-1.2.1s-.5-.7-.5-1.1c.5-2 .8-4.2.9-5.9l-5.9 5.6c-.4.4-.9.4-1.3.1s-.5-.9-.2-1.3c3.6-5.8 5.2-12.3 5.8-15.7l-8.8 6.9c-.4.3-.9.3-1.3 0s-.5-.8-.2-1.2c3.1-6 4.8-13.4 5.6-17.7-3.5 3.6-7.9 6.3-8.1 6.4-.4.3-1 .2-1.3-.2s-.3-.9 0-1.3c7.1-7.9 8-26.3 9-47.7.2-3.8.4-7.7.6-11.6 1.5-26.5 14-30.1 14.5-30.2l18-4.2c1.5-.3 37.2-8.4 47-4.4s17.3 9.3 21.5 22.5c3.5 10.6 2.7 29.9 2.1 44-.1 3.2-.2 6.2-.3 8.8-.3 13.4 4.4 26.4 4.4 26.6.2.5 0 1-.4 1.2s-.9.2-1.3-.2c-1.7-2-3.3-4.6-4.6-7.1 2.5 9.4 7.9 20.8 8 20.9.2.4.1.9-.2 1.2s-.8.4-1.2.1c-4.1-2.4-10-10.3-13.3-14.9 1.2 5.9 4.2 13.8 4.2 13.9.2.4 0 .9-.3 1.2-.4.3-.8.3-1.2 0-2.7-2-5.7-5.7-7.7-8.4 1.1 6.2 3 14.2 3 14.3.1.4-.1.8-.4 1.1-.4.2-.8.2-1.2-.1-3-2.4-6.5-8.3-8.7-12.4.3 3.9.7 7.9.7 7.9 0 .4-.2.8-.6 1-.4.2-.9.1-1.1-.2-1.2-1.3-2.1-2.5-2.8-3.5 1.1 7 3.3 13.8 3.3 13.9.1.4 0 .9-.4 1.2-.4.2-.9.2-1.2-.1-1.6-1.5-3.5-3.1-4.9-4.3.3 2.4.6 5.8.6 6.6 0 .5 0 2.1-1.3 2.4-.6.2-2.5.6-9.1-11.7.5 4.6 1.4 10.5 1.4 10.6.1.4-.2.9-.6 1.1-.4.2-.9.1-1.2-.3-2.1-2.5-6.2-7.2-8.5-9.8l-.5 9.5c0 .4-.3.8-.7.9.2-.2.1-.2 0-.2zm9-17.9c.4 0 .7.2.9.5 3.1 6.1 7.1 13 8.9 14.7v-.1c0-.8-.5-5.8-.9-8.9 0-.4.2-.8.5-1 .4-.2.8-.1 1.1.1 0 0 2 1.7 4.3 3.7-1.1-3.9-2.7-10.5-2.9-16.3 0-.5.4-1 .9-1 .5-.1 1 .3 1.1.7 0 0 .6 2.2 2.8 5.2-.3-2.8-.6-6.7-.6-9.4 0-.5.3-.9.8-1s.9.1 1.1.5c0 .1 4 8.4 7.8 13.2-.9-4.2-2.4-11-2.8-15.1 0-.5.2-.9.7-1 .4-.1.9 0 1.2.4 0 .1 3.3 5.1 6.7 8.8-1.4-4.2-3.5-11-3.5-14.8 0-.4.3-.8.7-1 .4-.1.9 0 1.1.4.1.1 6.5 9.9 11.7 15.1-2.7-6.2-7.6-18.1-7.6-25.3 0-.5.3-.9.8-1s.9.2 1.1.6c0 .1 1.5 4.1 3.7 8.1-1.3-5.2-2.8-12.9-2.6-20.9.1-2.6.2-5.6.3-8.8.6-13.9 1.3-33-2-43.3-4-12.4-10.8-17.3-20.4-21.2-9.2-3.7-45.4 4.4-45.8 4.5l-18 4.2c-.1 0-11.6 3.5-13 28.4-.2 3.9-.4 7.8-.6 11.6-.9 18.4-1.6 34.6-6.5 44.3 1.9-1.5 4.1-3.5 5.5-5.6.3-.4.7-.5 1.2-.4s.7.6.6 1.1c-.1.4-1.2 9.6-4.7 18.1l7.6-5.9c.3-.2.7-.3 1.1-.1.3.2.6.6.5 1 0 .3-.6 6.6-3.6 13.6l3.4-3.3c.3-.3.7-.4 1.1-.2.4.2.6.6.6 1 0 .2-.2 2.9-.7 5.9 2.9-2.7 7.9-7.5 9.8-11.5.2-.4.7-.6 1.2-.5s.8.6.7 1.1c0 .4-.7 7.5-2 12.9l4.8-5c.3-.3.8-.4 1.2-.2.4.2.6.6.6 1 0 .3-.6 4.5-1.3 8.6l2.2-3.3c.3-.4.7-.5 1.2-.4.4.2.7.6.7 1l-.6 6.4 8.6-7.6c.3-.3.7-.3 1-.2.4.1.6.5.6.9l.7 9.6 4.1-7c.2-.3.6-.5 1-.5s.7.3.8.7L93 153l1.7-4.4c.1-.3.4-.6.8-.6.4-.1.7.1.9.4l6.7 8.6.5-9.3c0-.4.3-.8.7-.9.4-.1.8 0 1.1.3.1.1 4.6 5.2 8 9.1-.5-3.9-1.3-10.1-1.3-12.3 0-.5.3-.9.8-1-.1-.1 0-.1.1-.1z" fill="#000000" stroke-width="none" opacity="1"></path></g></g><g id="svga-group-humanbody-back"><path id="SvgjsPath12352" d="M77.6 118.3c0 19.3 3.4 44.1-10 51.9-13.4 7.9-31.9 11.3-37.8 22s-4.4 25.3-4.4 25.3h149.3s.7-18.9-5.1-26.4c-8.1-10.4-27.8-15.5-37.7-20.9s-13.4-25.1-13.4-52.4l-40.9.5z" fill="#ffffff" stroke-width="none" opacity="1"></path></g><g id="svga-group-chinshadow-single"></g><g id="svga-group-humanbody-front"><path id="SvgjsPath12353" d="M175.8 218.7H24.4l-.1-1c-.1-.6-1.5-15.1 4.5-26 4.1-7.4 13.5-11.3 23.5-15.5 5-2.1 10.2-4.3 14.8-6.9 10.6-6.2 10.1-23.9 9.6-41-.1-3.5-.2-6.8-.2-10v-1.1l43.2-.4v1.1c0 29.9 4.2 46.7 12.8 51.4 2.9 1.6 6.7 3.2 10.8 4.9 10 4.1 21.3 8.8 27.2 16.3 6.1 7.7 5.4 26.4 5.4 27.1l-.1 1.1zm-149.3-2.2h147.1c0-4.1-.2-18.5-4.9-24.6-5.5-7-16.6-11.6-26.3-15.6-4.1-1.7-8-3.3-11-5-5.1-2.8-8.7-8.9-10.9-18.7-2-8.4-2.9-19.4-3-33.5l-38.6.4c0 2.8.1 5.7.2 8.8.5 17.8 1 36.1-10.7 43-4.7 2.7-9.9 4.9-15 7.1-9.6 4-18.7 7.8-22.4 14.5-5 8.6-4.7 20.1-4.5 23.6z" fill="#000000" stroke-width="none" opacity="1"></path><path id="SvgjsPath12354" d="M93.9 153.8c-.5 1.8-.4 3.4.5 5.2.8 1.6 2.1 2.7 3.9 2.9.4 0 .7-.5.5-.8-1.6-2.2-3.5-4.2-3.7-7.1 0-.7-1-.9-1.2-.2z" fill="#000000" stroke-width="none" opacity="1"></path><path id="SvgjsPath12355" d="M112.5 187.5c8.8.5 18.1-.7 26.6-2.9.7-.2.6-1.4-.2-1.3-8.8 1.1-17.7 2-26.5 3.3-.5.1-.3.9.1.9z" fill="#000000" stroke-width="none" opacity="1"></path><path id="SvgjsPath12356" d="M63.1 182.5c3.8.9 7.6 1.9 11.5 2.8 3.6.8 7.4 2 11.1 2.1.7 0 .8-.9.2-1.2-3.5-1.4-7.5-1.7-11.2-2.5-3.8-.7-7.5-1.3-11.3-2-.5 0-.7.7-.3.8z" fill="#000000" stroke-width="none" opacity="1"></path></g><g id="svga-group-clothes-single"><path id="SvgjsPath12237" d="M171.5 182.77c-1.41-1.21-5.23-1.81-5.23-1.81s-6.03-3.22-9.65-4.02c-3.62-.8-16.28-6.03-16.28-6.03l2.81-2.21s-12.06-7.44-14.87-9.45c-2.81-2.01-4.62-5.83-5.83-6.03 0 0-.6 2.41-.2 6.83.4 4.42 3.62 14.67 3.62 14.67s-1.64 12.35-2.66 16.33c-8.37 6.39-23.24 16.8-23.24 16.8-10.3-6.02-20.65-14.2-25.57-18.26-1.01-4.92-2.33-14.87-2.33-14.87s3.22-10.25 3.62-14.67c.4-4.42-.2-6.83-.2-6.83-1.21.2-3.01 4.02-5.83 6.03s-14.87 9.45-14.87 9.45l2.81 2.21s-12.66 5.23-16.28 6.03c-3.62.8-9.65 4.02-9.65 4.02s-3.82.6-5.23 1.81c-1.41 1.21-4.82 22.91-4.42 34.97H175.91c.42-12.06-3-33.77-4.41-34.97z" fill="#ffffff" stroke-width="none" opacity="1"></path><path id="SvgjsPath12238" d="M172.15 182.01c-1.45-1.24-4.7-1.86-5.55-2.01-.97-.51-6.32-3.27-9.75-4.04-2.74-.61-11.02-3.91-14.53-5.33l1.46-1.15c.26-.2.4-.52.38-.84s-.2-.62-.47-.79c-.12-.07-12.06-7.44-14.82-9.41-1.35-.96-2.51-2.46-3.44-3.66-1.07-1.39-1.85-2.39-2.81-2.55a.987.987 0 0 0-1.13.74c-.03.1-.64 2.63-.23 7.17.38 4.17 3.12 13.13 3.59 14.67-.22 1.62-1.6 11.82-2.52 15.66-7.43 5.65-19.72 14.31-22.4 16.19-9.83-5.82-19.7-13.59-24.62-17.63-.89-4.49-2.02-12.78-2.21-14.23 0-.01.01-.04.02-.05.16.1.42-.06.28-.24-.05-.06-.1-.13-.15-.19.73-2.39 3.09-10.33 3.45-14.19.41-4.54-.2-7.06-.23-7.17-.13-.51-.62-.84-1.13-.74-.96.16-1.74 1.16-2.81 2.55-.6.77-1.29 1.65-2.07 2.44-.09 0-.18.09-.18.19-.38.37-.77.73-1.19 1.03-2.75 1.97-14.7 9.33-14.82 9.41-.28.17-.46.47-.47.79s.12.64.38.84l1.46 1.15c-3.5 1.42-11.79 4.72-14.53 5.33-3.43.76-8.78 3.52-9.75 4.04-.85.15-4.11.77-5.55 2.01-2.06 1.76-5.13 24.83-4.77 35.76.02.54.46.97 1 .97h55.87c.09 0 .18-.03.27-.06v.06h41.52c0-.03 0-.05-.01-.08.12.05.24.08.36.08h55.87c.54 0 .98-.43 1-.97.37-10.92-2.71-33.99-4.77-35.75zm-1.97 34.73c1.64-1.41 3.19-2.95 4.7-4.48.04 1.01.06 2 .07 2.95-.53.54-1.1 1.05-1.69 1.53h-3.08zm-4 0c2.9-2.35 5.71-4.82 8.57-7.22.04.72.08 1.43.11 2.13-1.9 1.71-3.86 3.37-5.74 5.1h-2.94zm4.6-33.28c.92 1.29 3.21 14.33 3.94 25.7-.08-.04-.18-.06-.26.01-2.75 2.28-5.55 4.52-8.27 6.84-.07-.06-.17-.07-.24.01-.22.23-.43.48-.64.72h-2.42c2.91-2.62 5.8-5.26 8.7-7.89.25-.22-.12-.59-.36-.36-3.07 2.75-6.16 5.49-9.23 8.25h-2.27c3.41-3.4 6.88-6.72 10.52-9.88.24-.21-.11-.57-.35-.35-3.77 3.3-7.46 6.69-11 10.24h-2.35c3.66-3.69 7.33-7.32 11.29-10.69.22-.19-.1-.5-.31-.31-4.07 3.41-8.07 6.99-11.66 10.9.04-.61.09-1.42.16-2.35.09-.07.18-.14.3-.23.08-.06.04-.19-.04-.24 3.25-3.46 6.6-6.8 10.19-9.92.22-.19-.1-.51-.32-.32-3.52 3.01-6.9 6.2-10.04 9.6.07-.85.16-1.77.26-2.74.25-.16.51-.31.76-.47.17-.11.02-.36-.16-.28-.05.02-.1.05-.16.07 2.94-2.94 5.86-5.88 9.01-8.61.2-.17-.09-.46-.29-.29-3.12 2.67-6.21 5.44-9.03 8.43.1-.89.22-1.82.34-2.75.05-.05.05-.13.03-.19.01-.09.02-.19.04-.28 2.45-2.6 5.02-5.06 7.76-7.35.18-.15-.08-.41-.26-.26a91.8 91.8 0 0 0-7.39 6.83c.13-.87.27-1.74.43-2.59.83-.96 1.56-2 2.45-2.92.98-1.03 2.03-1.97 3.16-2.85.15-.12-.05-.39-.21-.27-1.84 1.4-3.8 3.07-5.19 5.01.23-1.13.49-2.21.77-3.2.31-.47.62-.95.98-1.39.62-.75 1.3-1.44 2.04-2.07.14-.12-.06-.31-.2-.2-.8.69-1.69 1.52-2.43 2.43.3-.86.63-1.61.98-2.22 2.8-4.75 5.76-10.94 6.73-13.01 1.39.26 3.52.83 4.24 1.44zm-33.3-8.6c.28-.27.56-.54.84-.8.73-.67 1.45-1.34 2.17-2.01.25.1.59.24.99.4-1.07 1.09-2.14 2.18-3.19 3.28l-.81-.87zm3.92-6.07c-.04.02-.08.03-.12.06l-5.43 4.21c-2.31-2.63-3.95-4.73-3.98-4.77a.992.992 0 0 0-1.4-.18c-.44.34-.52.96-.18 1.4.23.29 5.61 7.25 10.96 11.85 3.69 3.18 6.92 5.6 8.56 6.8-3.33 2.4-12.87 9.37-15.76 12.51-2.93 3.18-6.98 12.16-8.34 15.27-1.22-1.72-2.66-3.3-4.04-4.9l.21-2.13c1.29 1.79 2.58 3.64 4.08 5.23.14.14.37-.04.27-.21-1.22-2.02-2.8-3.88-4.28-5.75.09-.86.17-1.73.26-2.6 1.42 1.83 2.82 3.69 4.35 5.42.11.12.33-.04.23-.18-1.41-2-2.99-3.89-4.53-5.79.17-1.67.35-3.32.53-4.86 1.2 1.57 2.42 3.14 3.73 4.62.11.13.33-.04.24-.18-1.22-1.72-2.56-3.36-3.91-4.99.14-1.19.28-2.31.41-3.31 1.16 1.62 2.3 3.28 3.6 4.78.09.11.27-.03.2-.15-1.11-1.82-2.44-3.53-3.72-5.25.13-.93.25-1.73.36-2.38 1.15 1.59 2.3 3.18 3.58 4.65.06.07.18-.02.13-.1-1.09-1.77-2.36-3.44-3.61-5.1.07-.36.14-.65.2-.84.11-.36.23-.84.36-1.4.62.86 1.23 1.71 1.89 2.54.05.06.15-.02.11-.09-.61-.96-1.26-1.89-1.92-2.83.43-2 .91-4.91 1.33-7.66.58-1.19 1.12-2.4 1.66-3.61.1-.23-.23-.43-.34-.2-.37.81-.75 1.62-1.11 2.43.25-1.71.48-3.28.63-4.42.74-1.33 1.53-2.63 2.41-3.89.14-.2-.18-.38-.32-.19-.67.94-1.32 1.91-1.93 2.9l.09-.64c0-.02-.01-.04-.01-.06.76-1.43 1.47-2.9 2.22-4.32.07-.14-.13-.26-.21-.12-.69 1.23-1.44 2.46-2.16 3.7-.07-.22-.16-.53-.28-.91.97-1.58 1.82-3.27 2.74-4.85.13-.23-.22-.43-.35-.21-.84 1.42-1.77 2.84-2.61 4.29-.08-.28-.17-.57-.26-.89 1.32-2.03 2.39-4.31 3.55-6.39.12-.22-.21-.42-.34-.2-1.1 1.91-2.4 3.83-3.43 5.81-.1-.35-.2-.71-.31-1.09 1.6-2.2 2.98-4.61 4.42-6.91.13-.21-.19-.39-.32-.19-1.42 2.15-2.96 4.29-4.26 6.53-.1-.37-.21-.75-.31-1.14 1.16-2.3 2.41-4.4 4.24-6.27.18-.18-.1-.46-.28-.28-1.67 1.66-3.2 3.62-4.16 5.79-.11-.41-.21-.82-.32-1.23.07.02.15.01.2-.07 1.24-1.76 2.25-3.74 3.29-5.64 2.57 1.79 10.42 6.67 13.49 8.58zm-18.14-8.82c-.02-.23-.03-.43-.04-.64.16-.34.32-.68.5-.99.27-.48.57-.94.88-1.39.23.29.48.58.73.87-.36.5-.71 1-1.04 1.53-.3.48-.63 1.01-.91 1.56-.06-.35-.1-.66-.12-.94zm-.13-3.04c.22-.34.44-.68.65-1.02.02.03.05.06.07.09l.43.55a22.446 22.446 0 0 0-1.13 1.75c-.02-.48-.02-.94-.02-1.37zm1.46 2.81c.31-.55.65-1.09 1-1.62.25.28.52.54.79.8-1.01 1.32-1.97 2.78-2.57 4.33-.1-.49-.2-.96-.28-1.4.39-.67.68-1.43 1.06-2.11zm2.13-.49c.29.26.59.51.9.74-1.13 1.83-2.35 3.68-3.27 5.61-.12-.51-.24-1.01-.36-1.5.89-1.65 1.7-3.29 2.73-4.85zm-3.24-3.72c-.11.14-.21.28-.33.43.01-.28.03-.55.05-.78.1.11.18.23.28.35zM67.67 169.5c.06-.07.08-.16.12-.24 1.19 1.33 2.39 2.76 3.68 4.04-.14.45-.24.78-.29.96-.49-.44-.99-.89-1.45-1.36a37.5 37.5 0 0 1-2.48-2.87l.42-.53zm.81-8.24c1.6 1.71 3.19 3.5 4.95 5.04-.04.17-.09.35-.13.52-1.63-1.85-3.62-3.5-5.43-5.16l.61-.4zm.94-.62c1.38 1.53 2.78 3.1 4.31 4.46l-.15.62c-1.48-1.65-3.15-3.16-4.76-4.68.21-.14.41-.28.6-.4zm.83-.57c.01-.01.02-.02.03-.02 1.19 1.29 2.38 2.68 3.76 3.71-.05.23-.1.47-.16.7-1.26-1.43-2.68-2.76-4.07-4.08.16-.12.31-.22.44-.31zm1.25-1.06c.89 1.12 1.82 2.26 2.86 3.19-.07.35-.14.71-.22 1.08-1.01-1.27-2.31-2.4-3.54-3.5.31-.25.62-.5.9-.77zm.91-.93c.71.84 1.43 1.69 2.23 2.43-.04.33-.1.68-.16 1.05-.77-1.03-1.69-1.99-2.6-2.92.17-.2.36-.37.53-.56zm.88-1.04c.47.64.96 1.29 1.48 1.89-.02.27-.03.54-.06.82-.62-.71-1.31-1.39-1.98-2.05.19-.22.38-.44.56-.66zm.84-1.07c.17.23.37.44.52.65l.18.24c0 .37 0 .77-.01 1.2-.39-.48-.8-.95-1.21-1.41.17-.21.34-.43.5-.64 0-.01.01-.03.02-.04zm.66-.2-.24-.33.21-.27.03.6zm-7.25 6.1c1.8 1.87 3.58 3.93 5.59 5.58l-.27 1.02c-1.31-1.73-2.97-3.28-4.44-4.86-.19-.21-.5.1-.31.31 1.5 1.66 2.94 3.53 4.62 5.02-.07.26-.14.52-.22.78-.28-.27-.56-.53-.84-.8-.82-.81-1.66-1.61-2.49-2.41-.16-.16-.41.08-.25.25.8.83 1.59 1.67 2.39 2.5.33.34.66.71 1.01 1.06-.09.32-.18.62-.26.92-.44-.44-.89-.85-1.32-1.28-.95-.94-1.92-1.85-2.88-2.77-.14-.14-.35.07-.22.22.91.98 1.81 1.96 2.74 2.92.5.51.98 1.06 1.5 1.57-.07.23-.13.45-.19.65-1.23-1.29-2.58-2.49-3.83-3.69a.938.938 0 0 0-.38-.74.99.99 0 0 0-1.4.18c-.03.04-1.66 2.14-3.98 4.77l-5.43-4.21c-.04-.03-.08-.04-.12-.06 2.36-1.48 7.55-4.7 10.98-6.93zm-36.11 20.15c.17.36.4.85.68 1.43-1.06-.29-2.14-.54-3.21-.78.84-.29 1.79-.51 2.53-.65zm-3.31.94c1.42.39 2.85.82 4.3 1.14.13.27.26.54.41.84-1.89-.53-3.85-.91-5.78-1.29.02-.04.04-.09.06-.11.23-.22.59-.41 1.01-.58zm-5.11 33.78c-.01-.54-.01-1.1 0-1.67 1.91.46 3.88.86 5.81 1.08.24.03.27-.34.05-.41-1.89-.53-3.9-.91-5.86-1.2.01-.37.01-.74.02-1.12 3.02.66 6.06 1.42 9.13 1.79.2.02.23-.29.05-.35-2.99-.83-6.11-1.29-9.16-1.84.01-.41.03-.82.05-1.23 2.32.51 4.64 1.04 7 1.33.21.03.25-.32.05-.37-2.3-.6-4.67-.98-7.03-1.37.03-.75.08-1.52.13-2.29 1.69.43 3.54.67 5.24.56.25-.02.25-.36 0-.39-1.75-.21-3.47-.4-5.21-.68.05-.74.11-1.48.17-2.23 2.08.49 4.19 1 6.31 1.23.21.02.24-.3.05-.35-2.06-.6-4.21-.93-6.33-1.27.04-.5.09-.99.13-1.49 2.25.53 4.5 1.09 6.78 1.39.23.03.26-.33.05-.39-2.21-.66-4.51-1.06-6.79-1.5.04-.43.09-.87.13-1.3 2.25.4 4.5.86 6.77 1.04.22.02.26-.33.05-.38-2.22-.5-4.52-.73-6.79-1.01.09-.84.18-1.67.28-2.49 2.39.6 4.8 1.29 7.24 1.55.2.02.22-.28.05-.34-2.32-.79-4.81-1.17-7.23-1.63l.18-1.39c2.43.62 4.87 1.24 7.34 1.57.22.03.25-.32.05-.38-2.38-.74-4.87-1.19-7.33-1.64.09-.68.18-1.35.27-2 2.42.4 4.88.82 7.33.96.19.01.24-.3.05-.34-2.39-.54-4.87-.8-7.31-1.08.12-.83.24-1.63.36-2.4 2.6.56 5.21 1.18 7.85 1.48.2.02.24-.3.05-.35-2.57-.67-5.22-1.04-7.85-1.45.1-.61.2-1.2.29-1.77 2.16.52 4.36 1.07 6.56 1.3.23.02.26-.33.05-.39-2.11-.65-4.34-1-6.53-1.36.13-.73.26-1.42.38-2.06 2.15.65 4.32 1.31 6.52 1.72.24.04.33-.28.1-.36-2.12-.76-4.34-1.29-6.53-1.82.11-.56.22-1.07.33-1.53 2.35.62 4.74 1.4 7.14 1.71.22.03.23-.3.05-.36-2.26-.85-4.72-1.26-7.08-1.81.15-.64.3-1.16.42-1.53 2.07.51 4.15 1.04 6.25 1.36 1.36 2.78 3.25 6.47 5.07 9.56 2.73 4.63 3.7 17.63 3.94 21.71H23.01zm16.87-22.72c-2.72-4.61-5.6-10.62-6.6-12.76 1.89-.95 5.73-2.78 8.26-3.34 3.3-.73 13.61-4.92 15.97-5.89l3.25 2.52c-1.65 1.8-3.52 3.71-5.36 5.29-5.23 4.5-9.5 7.46-9.55 7.49-.27.19-.43.49-.43.82s.15.63.42.82c.02.02.51.36 1.31.94-.36.49-.54 1.35-.26 1.72.06.08.2.11.25 0 .16-.32.09-.7.2-1.04.05-.14.12-.27.19-.4.33.24.7.5 1.09.8-.21.43-.4.87-.51 1.32-.03.14.15.22.23.1.24-.35.43-.76.6-1.18.29.21.59.43.91.66-.16.41-.26.84-.24 1.27.01.12.18.15.21.03.1-.38.18-.74.3-1.1.42.31.85.63 1.3.96-.18.39-.34.78-.43 1.17-.03.14.15.22.24.1.21-.31.37-.67.52-1.03.4.3.81.61 1.23.92-.11.34-.2.67-.23 1.01-.02.16.23.22.31.08.13-.25.23-.52.32-.8.4.3.8.61 1.21.92-.15.4-.29.8-.37 1.2-.03.18.2.3.3.13.19-.32.34-.66.48-1.01.28.22.56.43.84.65-.1.29-.21.58-.33.88-.05.13.15.24.24.14.19-.22.34-.46.47-.72.36.28.71.55 1.05.83-.21.5-.4 1.01-.49 1.51-.03.17.18.27.28.12.25-.39.44-.85.61-1.31.2.16.4.32.6.49-.37.73-.62 1.5-.55 2.18.01.14.2.22.28.08.33-.56.41-1.25.66-1.85.01-.02.02-.04.03-.07.37.3.73.6 1.07.89-.1.17-.2.34-.3.52-.32.56-.74 1.14-.89 1.77-.04.16.16.28.27.16.45-.47.71-1.13 1.01-1.7.08-.15.16-.31.24-.46.31.27.61.53.89.78-.19.36-.39.73-.58 1.1-.33.62-.78 1.25-.92 1.94-.03.15.15.28.27.16.49-.51.74-1.24 1.06-1.86.17-.34.35-.68.52-1.02.43.39.79.75 1.08 1.07.02.02.04.05.06.07-.53.98-1.09 2-1.38 3.03-.06.2.2.28.31.13.58-.81 1-1.79 1.41-2.75.26.32.53.69.8 1.09-.25.44-.51.89-.76 1.33-.36.62-.8 1.25-1 1.94-.04.14.15.27.26.15.48-.53.78-1.24 1.12-1.87l.63-1.17c.17.27.35.54.52.83-.92 1.62-1.82 3.24-2.71 4.87-.15.27.26.51.41.24.86-1.57 1.7-3.16 2.53-4.75.23.38.45.79.68 1.2-1.05 1.95-2.2 3.86-3.19 5.84-.1.19.17.43.32.24 1.3-1.66 2.3-3.69 3.08-5.7.28.51.56 1.04.83 1.57-1.16 2.17-2.41 4.31-3.44 6.54-.11.25.16.45.37.28.11-.09.23-.18.34-.27.11-.09.06-.2-.04-.26 1.08-1.9 2.01-3.9 2.99-5.85.24.48.48.97.72 1.46-1.27 2.07-2.55 4.25-3.37 6.52H44.11c-.23-4.05-1.21-17.59-4.23-22.71zm29.87 22.72h-1.52l1.17-1.92c.23.53.44 1.01.61 1.42-.09.16-.18.33-.26.5zm-2.1 0H66.4c.7-1.32 1.39-2.64 2.08-3.96.25.55.49 1.08.7 1.57-.5.79-1.02 1.59-1.53 2.39zm-1.84 0h-1.37c1.09-1.97 2.03-4.01 3.1-6 .26.54.51 1.08.75 1.6-.83 1.47-1.66 2.93-2.48 4.4zm6.59 0c-.78-1.89-5.25-12.55-8.49-16.08-.9-.98-2.44-2.32-4.24-3.79.06-.08.1-.17.16-.26.15-.21-.19-.4-.34-.2-.05.06-.09.13-.14.2-1.15-.93-2.39-1.9-3.63-2.85.01-.02.01-.04.02-.06.07-.2-.18-.29-.31-.17-2.9-2.21-5.74-4.28-7.27-5.38 1.64-1.19 4.87-3.62 8.56-6.8 4.3-3.7 8.61-8.91 10.26-10.97 1.17 1.67 2.55 3.42 4.15 4.72.02.17.06.42.1.73-1.45-1.53-2.98-3-4.29-4.67-.11-.14-.36.05-.25.19 1.42 1.86 2.9 3.83 4.67 5.42.05.35.1.74.16 1.16-.17-.16-.34-.31-.5-.47-.97-.94-1.97-1.86-2.93-2.81-.15-.14-.37.08-.23.23.96.95 1.88 1.95 2.83 2.91.31.32.63.66.94 1 .04.3.09.61.13.92a.435.435 0 0 1-.06-.07c-.83-.92-1.67-1.82-2.52-2.73-.15-.16-.36.07-.23.23.75.9 1.5 1.8 2.27 2.69.23.26.45.54.68.81.05.36.11.72.16 1.09l-1.59-1.8c-.13-.15-.34.07-.22.22.61.75 1.21 1.5 1.82 2.24l.1.13c.07.44.14.88.21 1.33l-.03-.03c-.57-.56-1.15-1.1-1.72-1.65-.15-.14-.37.08-.23.23.54.58 1.09 1.16 1.64 1.73.15.16.31.32.46.49.07.44.14.87.21 1.3l-.75-1.02c-.14-.2-.48-.01-.33.19.41.58.83 1.16 1.24 1.74.38 2.18.75 4.08 1.06 5.07.76 2.42 2.25 17.82 2.88 24.83H72.4zm46.74 0H78.82c-.36-4.02-1.81-19.82-2.76-24.51 5.48 4.41 14.49 11.28 23.41 16.49.34.2.76.18 1.08-.04.67-.47 12.78-8.95 21.12-15.19-.19 1.15-.38 2.61-.59 4.24-.02.04-.02.07-.01.12-.81 6.59-1.67 15.93-1.93 18.89zm2.17-1.87c.54.68 1.16 1.33 1.85 1.87h-.96c-.1-.28-.27-.52-.42-.77-.07-.11-.25-.01-.18.1.14.23.26.46.43.67h-.88c.04-.57.1-1.2.16-1.87zm2.83 1.87c-.98-.81-1.92-1.61-2.76-2.59.07-.77.15-1.59.23-2.44 1.27 1.57 2.52 3.18 3.93 4.6-.07.17-.14.32-.18.43h-1.22zm3.4 0c1.32-3.02 5.29-11.8 7.98-14.72 3.3-3.58 16.45-12.95 16.58-13.05.27-.19.42-.5.42-.82s-.16-.63-.43-.82c-.03-.02-1.61-1.11-4.01-2.97.03-.06.06-.12.12-.18.17-.18-.09-.44-.27-.27-.06.06-.11.13-.16.2-.29-.22-.58-.46-.89-.7.17-.35.34-.7.52-1.05.1-.21-.2-.39-.31-.18-.17.33-.34.66-.52.99-.36-.28-.72-.58-1.1-.89.03-.05.06-.11.09-.16.28-.51.56-1.03.85-1.54.11-.2-.19-.38-.31-.18-.3.5-.6 1.01-.9 1.51-.02.03-.04.07-.06.1-.33-.27-.67-.55-1.01-.84.3-.36.63-.67 1-.95.19-.14.01-.46-.19-.32-.4.29-.78.61-1.11.98l-.03.03c-.28-.24-.57-.48-.86-.73.1-.16.21-.32.33-.46.4-.48.87-.89 1.37-1.26.2-.15.01-.48-.2-.34-.54.37-1.04.8-1.48 1.29-.12.13-.26.29-.39.45-.01-.01-.02-.01-.03-.02-.2-.17-.41-.36-.61-.55.22-.31.43-.62.68-.91.53-.62 1.12-1.19 1.75-1.71.21-.18-.09-.47-.3-.3-.87.71-1.82 1.59-2.53 2.57-.23-.21-.46-.42-.69-.64.24-.27.47-.56.7-.83.46-.53.91-1.07 1.37-1.6.18-.21-.12-.52-.31-.31l-1.38 1.59c-.24.27-.49.54-.73.82-.24-.23-.48-.46-.72-.7 1.04-1.27 2.06-2.52 3.3-3.64.17-.16-.08-.41-.26-.26-1.22 1.06-2.43 2.21-3.42 3.51-.26-.26-.52-.52-.77-.79 1.11-1.14 2.21-2.29 3.31-3.44v-.01c3.72 1.51 11.65 4.65 14.47 5.28 2.53.56 6.37 2.39 8.26 3.34-1 2.13-3.88 8.15-6.6 12.76-3.02 5.12-4 18.66-4.23 22.72h-26.29zm46.66 0c.26-.24.52-.48.76-.74 0 .25 0 .5-.01.74h-.75z" fill="#000000" stroke-width="none" opacity="1"></path></g><g id="svga-group-head" transform="matrix(0.9986295104026794,-0.0523359589278698,0.0523359589278698,0.9986295104026794,-7.189985275268555,5.425464630126953)"><g id="svga-group-ears-left-move" transform="matrix(1,0,0,1,0,0)"><g id="svga-group-ears-left"><path id="SvgjsPath12254" d="M60.8 80.5c-.2-.3-3.3-4.3-5.9-6.7s-3.4-2.4-4.6-.9c-1.3 1.5-2.9 9.1-2.5 12.4.4 3.4 3.6 8.7 5.2 11.7 1.7 3 3.3 6.7 5.1 6.3 1.9-.4 4.4-4.6 5.7-7.7 1.2-3.1.6-10.9-3-15.1z" fill="#ffffff" stroke-width="none" opacity="1"></path><path id="SvgjsPath12255" d="M52.9 98.9c-.3-.5-.5-1-.8-1.4l-.6-1c-1.8-3.1-4.4-7.8-4.8-11-.4-3.5 1.2-11.4 2.7-13.2.6-.7 1.2-1.3 2.2-1.4 1.2-.1 2.3.7 3.9 2.2 1.6 1.4 3.5 3.6 5.8 6.5l.2.3c3.9 4.6 4.5 12.8 3.2 16.1-1.1 3-3.9 7.8-6.4 8.3h-.5c-2 .1-3.4-2.6-4.9-5.4zm7.2-17.8s-.1-.1-.2-.3c-2.2-2.8-4.1-5-5.6-6.3-1.2-1.1-2.1-1.7-2.4-1.7-.2 0-.4.2-.8.7-1 1.2-2.6 8.4-2.3 11.7.3 2.8 2.8 7.3 4.5 10.3l.6 1c.3.5.5 1 .8 1.4.9 1.7 2.5 4.6 3.3 4.4 1.2-.2 3.6-3.7 4.9-7.1 1.1-2.8.4-10.2-2.8-14.1z" fill="#000000" stroke-width="none" opacity="1"></path><path id="SvgjsPath12256" d="M50 87c-.3-2.3-.5-7.8.8-9.6 2.2-2.9 6 6.4 6.9 9.3 0 .1.1.2.1.3.2.3-.1.7-.4.6-.4-.2-.9-.6-1.3-.8-1.1-.5-1.6.5-1.3 1.8.4 1.8 1.4 2.9 2.2 4.3.1.2 0 .4-.2.3-1.6-.9-3.5-4.5-3.1-6.6.3-2 1.9-1.8 3.1-.8-.7-1.7-1.5-3.3-2.5-4.8-.6-.9-1.2-2-2.2-2.2-1.2-.2-1 .3-1.2 1.8-.8 4.8-.3 10.4 2.5 14.5.1.1 0 .2-.1.1-1.7-2.3-2.9-4.9-3.3-8.2z" fill="#000000" stroke-width="none" opacity="1"></path></g></g><g id="svga-group-ears-right-move" transform="matrix(1,0,0,1,0,0)"><g id="svga-group-ears-right"><path id="SvgjsPath12257" d="M139.2 80.5c.2-.3 3.3-4.3 5.9-6.7 2.6-2.4 3.4-2.4 4.6-.9s2.9 9.1 2.5 12.4c-.4 3.4-3.6 8.7-5.2 11.7-1.7 3-3.3 6.7-5.1 6.3s-4.4-4.6-5.7-7.7c-1.2-3.1-.6-10.9 3-15.1z" fill="#ffffff" stroke-width="none" opacity="1"></path><path id="SvgjsPath12258" d="M142.1 104.4h-.5c-2.5-.5-5.2-5.4-6.4-8.3-1.3-3.4-.7-11.5 3.2-16.1l.2-.3c2.3-2.9 4.2-5.1 5.8-6.5 1.6-1.4 2.7-2.2 3.9-2.2 1 .1 1.6.7 2.2 1.4 1.5 1.8 3.1 9.7 2.7 13.2-.4 3.2-3 7.9-4.8 11l-.6 1c-.3.5-.5.9-.8 1.4-1.4 2.7-2.8 5.4-4.9 5.4zm-2.2-23.3c-3.2 3.9-3.9 11.2-2.8 14.1 1.3 3.4 3.7 6.9 4.9 7.1.8.2 2.4-2.7 3.3-4.4.3-.5.5-1 .8-1.4l.6-1c1.7-3 4.2-7.5 4.5-10.3.4-3.3-1.3-10.5-2.3-11.7-.4-.4-.6-.7-.8-.7-.3 0-1.2.5-2.4 1.7-1.5 1.4-3.3 3.5-5.6 6.3 0 .2-.1.3-.2.3z" fill="#000000" stroke-width="none" opacity="1"></path><path id="SvgjsPath12259" d="M150 87c.3-2.3.5-7.8-.8-9.6-2.2-2.9-6 6.4-6.9 9.3 0 .1-.1.2-.1.3-.2.3.1.7.4.6.4-.2.9-.6 1.3-.8 1.1-.5 1.6.5 1.3 1.8-.4 1.8-1.4 2.9-2.2 4.3-.1.2 0 .4.2.3 1.6-.9 3.5-4.5 3.1-6.6-.3-2-1.9-1.8-3.1-.8.7-1.7 1.5-3.3 2.5-4.8.6-.9 1.2-2 2.2-2.2 1.2-.2 1 .3 1.2 1.8.8 4.8.3 10.4-2.5 14.5-.1.1 0 .2.1.1 1.7-2.3 2.9-4.9 3.3-8.2z" fill="#000000" stroke-width="none" opacity="1"></path></g></g><g id="svga-group-faceshape-wrap"><g id="svga-group-faceshape-single"><path id="SvgjsPath12334" d="M142.4 53.6c-2.3-11.4-15.1-28.8-42.4-28.8S63.6 38.2 59.6 48.1c-2.5 6.2-3.2 15.2-3.4 19.7 0 0 .5 33.6 2.2 41.1 1.8 7.4 11.2 32.6 35.6 33.9 21.8 1.1 35.2-11.4 41.9-27 6.7-15.6 7.8-48 7.8-48 .1-3.2-.2-8.9-1.3-14.2z" fill="#ffffff" stroke-width="none" opacity="1"></path><path id="SvgjsPath12335" d="M96.8 144c-.9 0-1.9 0-2.8-.1-10.8-.6-19.9-5.6-27.1-15.1-5.2-6.8-8.4-14.9-9.5-19.7-1.8-7.5-2.2-39.9-2.3-41.3.2-4.8.9-13.8 3.4-20.1 6.6-16.2 20.1-24 41.5-24 12.3 0 23.2 3.6 31.3 10.4 6.3 5.2 10.9 12.5 12.2 19.3 1.1 5.5 1.3 11.4 1.4 14.4 0 1.3-1.2 32.8-7.9 48.4-4.5 10.6-15.7 27.8-40.2 27.8zM57.3 67.9c0 1.2.5 33.7 2.2 40.8 1.1 4.6 4.1 12.3 9.1 18.8 6.8 8.9 15.3 13.7 25.4 14.2 25.1 1.3 36.4-15.9 40.8-26.3 6.5-15 7.7-46.4 7.7-47.5 0-3-.3-8.7-1.4-14-1.3-6.4-5.6-13.1-11.5-18-7.7-6.5-18-9.9-29.9-9.9-20.3 0-33.2 7.4-39.4 22.6-2.1 5.9-2.8 14.6-3 19.3z" fill="#000000" stroke-width="none" opacity="1"></path></g></g><g id="svga-group-mouth-single-move" transform="matrix(1,0,0,1,0,0)"><g id="svga-group-mouth-single"><path id="SvgjsPath12426" d="M117.11 115.24c-.34-.18-.6-.42-.78-.76-.35-.63-1.32-.07-.97.57.05.09.12.16.18.24-.01 0-.02 0-.03.01a38.04 38.04 0 0 1-7.15 2.53.56.56 0 0 0-.26-.01c-2.35.46-4.66.17-7.03.14-.74-.01-1.58.02-1.84.66-.71-.88-1.89-.76-3.04-.77-2.01-.01-4.03.01-6.04-.01h-.03c-1.84-.45-3.64-1.04-5.41-1.76l-.03-.03c.03-.17 0-.35-.14-.49-.2-.2-.6-.23-.79 0-.3.35-.59.7-.89 1.05-.2.23-.23.57 0 .79.2.2.6.23.79 0 .12-.14.24-.28.35-.42.02.01.03.03.05.04h.01c2.85 2.85 5.63 5.83 8.62 8.54 2.43 2.21 5.3 2.28 8.46 2.17 3.4-.13 5.96-1.38 8.39-3.76 2.48-2.43 4.79-5.09 6.93-7.83.03.01.04.04.07.05.27.14.61.07.77-.2.16-.23.08-.61-.19-.75zm-30.48 2.75c9.03 3.05 18.91 2.7 27.73-.97-1.34 1.61-2.75 3.16-4.18 4.68-6.42 2.51-13.26 2.45-19.73.02-.02-.01-.03.01-.05 0-1.26-1.24-2.51-2.48-3.77-3.73zm22.46 4.84-.06-.12c.09-.03.19-.06.28-.1l-.22.22zm-.5.49c-.07-.13-.15-.27-.22-.4.04-.01.08-.02.12-.04v.02c.06.11.11.23.17.34-.02.03-.04.06-.07.08zm-.89.77c-.19-.27-.38-.55-.57-.82.07-.02.15-.03.22-.05l.39.84c-.02.01-.03.02-.04.03zm-.65.48-1.03-1.03.52-.12c.24.34.47.68.71 1.02-.07.04-.13.08-.2.13zm-.83.54c-.31-.48-.62-.96-.92-1.44l.18-.03c-.01.07.01.15.08.22l1.04 1.04c-.13.07-.26.14-.38.21zm-.72.4c-.3-.57-.61-1.14-.91-1.72.04-.01.08-.01.12-.02v.01l1.02 1.59c-.08.06-.15.11-.23.14zm-.54.24c-.44-.58-.81-1.2-1.13-1.84.06-.01.11-.02.17-.02l.99 1.86c-.02-.01-.03-.01-.03 0zm-.91.34c-.48-.65-.89-1.34-1.25-2.07.14-.01.28-.02.42-.04.34.7.74 1.36 1.21 1.99-.12.04-.25.08-.38.12zm-.68.19c-.57-.73-1.14-1.46-1.7-2.18.18-.01.36-.01.53-.03.35.77.8 1.49 1.29 2.18-.04 0-.08.02-.12.03zm-.83.16c-.44-.58-.82-1.18-1.16-1.82l1.39 1.78c-.08.02-.15.03-.23.04zm-.85.13c-.6-.78-1.14-1.59-1.62-2.45h.44c0 .02-.01.04 0 .07.39.83.88 1.6 1.42 2.35l-.24.03zm-.97.05c-.54-.8-1.01-1.63-1.41-2.51.05 0 .09.01.14.01.01.03-.01.05.01.08.47.84 1 1.64 1.57 2.41-.1 0-.2.01-.31.01zm-.77.02c-.53-.86-1.06-1.72-1.59-2.59.11.01.22.01.33.02v.03c.39.89.86 1.73 1.39 2.54h-.13zm-2.19-.05c-.62-.89-1.18-1.82-1.67-2.8.03.01.07.01.1.02 0 .04.01.09.05.13.66.92 1.4 1.78 2.09 2.68l-.57-.03zm-.97-.12c-.53-.92-1.03-1.86-1.5-2.82.04.01.08.02.11.02v.02c.47.98 1.03 1.9 1.63 2.8-.08 0-.16 0-.24-.02zm-1.71-.55c-.59-.9-1.18-1.81-1.78-2.71.1.03.2.05.3.08.53.9 1.06 1.79 1.59 2.69a1.09 1.09 0 0 0-.11-.06zm-1.74-1.26c-.38-.53-.7-1.1-.97-1.7.05.01.1.03.14.04.01.02 0 .03.01.05l1.38 2.1c-.19-.16-.38-.32-.56-.49zm2.68 1.61c-.55-.93-1.1-1.87-1.65-2.8.07.02.15.03.22.05.45.94.94 1.85 1.45 2.76-.01 0-.02-.01-.02-.01zm2.97.37c.01-.01.01-.02.02-.03-.17-.18-.31-.42-.46-.61-.54-.7-1.1-1.38-1.63-2.08.25.03.51.05.76.08.01.01 0 .02 0 .03.54.87 1.08 1.75 1.61 2.62-.1-.01-.2-.01-.3-.01zm2.11-2.52c.01 0 .01 0 0 0 .01 0 .01 0 0 0 .01 0 0 0 0 0zm-9.81-1.51c.15.05.31.1.46.15-.01.05-.03.09-.01.15.04.1.09.19.13.29l-.09-.09c-.16-.17-.33-.33-.49-.5z" fill="#000000" stroke-width="none" opacity="1"></path></g></g><g id="svga-group-eyes-left-move" transform="matrix(1,0,0,1,0,-1)"><g id="svga-group-eyes-left"><g id="svga-group-eyesback-left"></g><g id="svga-group-eyesiriswrapper-left"><g id="svga-group-eyesiriscontrol-left" transform="matrix(1,0,0,1,0,0)"><g id="svga-group-eyesiris-left"><path id="SvgjsPath12371" d="M83.5 85.1c-1.1-2.1-3.5-2.9-5.7-2.2-2.4.8-4.2 3.3-3.3 5.9.5 1.4 1.6 2.6 3.1 2.9.5.1 1 .1 1.6.1.6.1 1.2 0 1.8-.2 2.6-.9 3.8-4 2.5-6.5z" fill="#ffffff" stroke-width="none" opacity="1"></path><path id="SvgjsPath12372" d="M82.3 85.8c0-.1-.1-.1-.1-.2-.7-1.4-2.3-2-3.8-1.7.5 1.1.9 2.3 1 3.5 0 .2-.3.4-.5.3-.9-.7-1.8-1.6-2.3-2.6-.3.4-.5.8-.7 1.2-.1.3-.1.6-.1.9-.2.9 0 2 .8 2.7.3.3.8.5 1.2.6 1.2.6 2.7.5 3.7-.6.1-.1.1-.2.2-.2.5-.5.8-1.1 1-1.7.2-.9 0-1.6-.4-2.2zm-2.8 6.3h-.4c-.5 0-1.1 0-1.6-.1-1.4-.3-2.7-1.5-3.2-3-.9-2.7 1-5.2 3.4-6.1 2.3-.8 4.8.1 5.9 2.2.6 1.2.7 2.7.2 4-.5 1.3-1.6 2.3-2.9 2.8-.4.1-.9.2-1.4.2zm-.4-.4c.6.1 1.2 0 1.8-.2 1.2-.4 2.2-1.4 2.7-2.6.5-1.2.4-2.6-.2-3.7-1-1.9-3.4-2.8-5.5-2.1-2.3.8-4.1 3.2-3.2 5.7.5 1.4 1.7 2.6 3 2.8.4.1.9.2 1.4.1z" fill="#000000" stroke-width="none" opacity="1"></path></g></g></g><g id="svga-group-eyesfront-left"><path id="SvgjsPath12298" d="M79 72.1c-8.2 0-14.8 6.6-14.8 14.8s6.6 14.8 14.8 14.8 14.8-6.6 14.8-14.8c0-8.1-6.6-14.8-14.8-14.8zm8.5 19.6c-2.4 0-20 0-20.7-1-.7-.9.8-3.4 2.9-4.7 2.1-1.3 4.9-3 8.8-3.2s10.3 1.1 12.6 7.6c.3.8-1.2 1.3-3.6 1.3z" fill="#ffffff" stroke-width="none" opacity="1"></path><path id="SvgjsPath12299" d="M91.8 90.1c-2.6-5.7-6.5-7.9-13.8-7.9-5.6.1-11.4 4.6-11.8 7.4-.1.9.3 1.5 1.1 1.8 1.8.5 8 .7 14.2.7 3 0 6 0 8.4-.1h.4c.3 0 .5-.2.5-.5s-.2-.5-.5-.5h-.4c-12.1.2-20.4 0-22.2-.6-.4-.1-.5-.3-.4-.6.3-2.1 5.5-6.4 10.8-6.5 6.9-.1 10.3 1.9 12.8 7.2.1.3.4.4.7.3.2-.1.3-.4.2-.7zm-21.3-6.4c1.5-1.1 6.1-4.3 11.4-3 5.1 1.3 8.1 5 8.1 5.1.1.1.3.2.4.2s.2 0 .3-.1c.2-.2.3-.5.1-.7-.1-.2-3.2-4.1-8.7-5.4-5.7-1.4-10.7 2-12.3 3.1-.2.2-.3.5-.1.7.2.2.5.3.8.1z" fill="#000000" stroke-width="none" opacity="1"></path></g></g></g><g id="svga-group-eyes-right-move" transform="matrix(1,0,0,1,0,-1)"><g id="svga-group-eyes-right"><g id="svga-group-eyesback-right"></g><g id="svga-group-eyesiriswrapper-right"><g id="svga-group-eyesiriscontrol-right" transform="matrix(1,0,0,1,0,0)"><g id="svga-group-eyesiris-right"><path id="SvgjsPath12373" d="M125.6 85.1c-1.1-2.1-3.5-2.9-5.7-2.2-2.4.8-4.2 3.3-3.3 5.9.5 1.4 1.6 2.6 3.1 2.9.5.1 1 .1 1.6.1.6.1 1.2 0 1.8-.2 2.5-.9 3.7-4 2.5-6.5z" fill="#ffffff" stroke-width="none" opacity="1"></path><path id="SvgjsPath12374" d="M124.4 85.8c0-.1-.1-.1-.1-.2-.7-1.4-2.3-2-3.8-1.7.5 1.1.9 2.3 1 3.5 0 .2-.3.4-.5.3-.9-.7-1.8-1.6-2.3-2.6-.3.4-.5.8-.7 1.2-.1.3-.1.6-.1.9-.2.9 0 2 .8 2.7.3.3.8.5 1.2.6 1.2.6 2.7.5 3.7-.6.1-.1.1-.2.2-.2.5-.5.8-1.1 1-1.7.1-.9 0-1.6-.4-2.2zm-2.8 6.3h-.4c-.5 0-1.1 0-1.6-.1-1.4-.3-2.7-1.5-3.2-3-.9-2.7 1-5.2 3.4-6.1 2.3-.8 4.8.1 5.9 2.2.6 1.2.7 2.7.2 4-.5 1.3-1.6 2.3-2.9 2.8-.4.1-.9.2-1.4.2zm-.4-.4c.6.1 1.2 0 1.8-.2 1.2-.4 2.2-1.4 2.7-2.6.5-1.2.4-2.6-.2-3.7-1-1.9-3.4-2.8-5.5-2.1-2.3.8-4.1 3.2-3.2 5.7.5 1.4 1.7 2.6 3 2.8.3.1.8.2 1.4.1z" fill="#000000" stroke-width="none" opacity="1"></path></g></g></g><g id="svga-group-eyesfront-right"><path id="SvgjsPath12300" d="M121 72.1c-8.2 0-14.8 6.6-14.8 14.8s6.6 14.8 14.8 14.8 14.8-6.6 14.8-14.8c0-8.1-6.6-14.8-14.8-14.8zm-8.5 19.6c-2.4 0-3.9-.5-3.6-1.3 2.3-6.5 8.7-7.8 12.6-7.6 3.9.2 6.7 1.9 8.8 3.2 2.1 1.3 3.6 3.7 2.9 4.7-.7.9-18.3 1-20.7 1z" fill="#ffffff" stroke-width="none" opacity="1"></path><path id="SvgjsPath12303" d="M122 82.3c-7.3-.1-11.1 2.1-13.8 7.9-.1.3 0 .6.3.7s.6 0 .7-.3c2.5-5.4 5.9-7.3 12.8-7.2 5.3.1 10.5 4.4 10.8 6.5.1.4-.1.5-.4.6-1.8.5-10.1.7-22.2.6h-.4c-.3 0-.5.2-.5.5s.2.5.5.5h.4c2.4 0 5.4.1 8.4.1 6.1 0 12.4-.1 14.2-.7.8-.3 1.3-.9 1.1-1.8-.5-2.8-6.3-7.3-11.9-7.4zM109.6 86c.2 0 .3-.1.4-.2 0 0 3-3.8 8.1-5.1 5.3-1.3 9.9 1.9 11.4 3 .2.2.6.1.7-.1.2-.2.1-.6-.1-.7-1.6-1.1-6.5-4.6-12.3-3.1-5.5 1.4-8.6 5.3-8.7 5.4-.2.2-.1.5.1.7.1.1.3.1.4.1z" fill="#000000" stroke-width="none" opacity="1"></path></g></g></g><g id="svga-group-facehighlight-single"></g><g id="svga-group-eyebrows-left-move" transform="matrix(1,0,0,1,0,-1)"><g id="svga-group-eyebrows-left-rotate" transform="matrix(0.9825664758682251,-0.1859116107225418,0.1859116107225418,0.9825664758682251,-12.105195045471191,15.60903549194336)"><g id="svga-group-eyebrows-left"><path id="SvgjsPath12215" d="M70.6 67.28s-7.13 5.85-7.29 6.25c-.16.4 6.09-1.68 8.42-1.76s16.03 5.77 16.99 5.93c.96.16 2.4-4.01 2.4-4.49s-17.96-7.7-20.52-5.93z" fill="#ffffff" stroke-width="none" opacity="1"></path><path id="SvgjsPath12216" d="m62.73 73.63.21.26c.29.33.55.27 3.24-.44 1.83-.48 4.34-1.14 5.56-1.19 1.49-.07 8.55 2.73 12.77 4.38 2.54 1 3.78 1.48 4.13 1.54.05.01.09.01.14.01.23 0 .46-.1.69-.29 1.03-.87 2.15-4.11 2.15-4.7 0-.37-.34-.54-.69-.73-1.74-.92-17.79-7.54-20.61-5.61l-.03.03c-7.23 5.93-7.38 6.31-7.44 6.45l-.12.29zm5.62-1.76-1.91-.48c.47-.39.96-.81 1.46-1.23l1.88 1.39c-.45.09-.94.2-1.43.32zm5.11-4.23.13 3.98c-.39-.11-.73-.19-1.04-.25l-1.48-3.77c.41-.14 1.19-.14 2.39.04zm.81 4.17-.14-4.06c.56.11 1.2.24 1.92.42l-1.08 3.86c-.25-.08-.48-.15-.7-.22zm1.32.43 1.09-3.9c.54.14 1.12.31 1.74.49l-2.22 3.61c-.2-.06-.41-.13-.61-.2zm1.26.44 2.24-3.64c.29.09.58.18.89.28l-1.7 3.88c-.5-.19-.97-.36-1.43-.52zm4.36-2.96c.31.1.61.21.92.31l-2.26 3.75c-.33-.12-.65-.24-.97-.36l1.71-3.9c.2.07.39.13.6.2zm-.72 4.3 2.27-3.76c.41.15.82.29 1.22.44l-1.82 3.97c-.56-.22-1.12-.44-1.67-.65zm5.43-2.59c-1.37 2.27-1.97 3.33-2.23 3.83-.31-.12-.61-.24-.91-.36l1.83-3.98c.45.18.89.34 1.31.51zm.32 4.83 1.71-4.02c.59.25 1.11.47 1.54.66l-2.2 3.77c-.32-.12-.67-.26-1.05-.41zm1.68.65 2.17-3.73c.2.1.37.18.48.25-.22.9-1.27 3.52-1.82 3.78-.12-.04-.42-.15-.83-.3zm-3.61-1.41c.37-.69 1.31-2.29 2.24-3.83.27.11.53.21.79.32l-1.72 4.03-.75-.3a9.31 9.31 0 0 1-.56-.22zM71.7 71.27c-.29.01-.64.05-1.02.11l-2.26-1.66c.73-.61 1.45-1.2 2.09-1.73l1.29 3.29c-.02-.01-.07-.01-.1-.01zm-6.88 1.51c.29-.25.63-.55 1-.86l1.17.29c-.36.09-.72.19-1.07.28-.36.09-.75.19-1.1.29z" fill="#000000" stroke-width="none" opacity="1"></path></g></g></g><g id="svga-group-eyebrows-right-move" transform="matrix(1,0,0,1,0,-1)"><g id="svga-group-eyebrows-right-rotate" transform="matrix(0.9825664758682251,0.1859116107225418,-0.1859116107225418,0.9825664758682251,15.59207534790039,-21.575145721435547)"><g id="svga-group-eyebrows-right"><path id="SvgjsPath12217" d="M129.4 67.28s7.13 5.85 7.29 6.25-6.09-1.68-8.42-1.76c-2.32-.08-16.03 5.77-16.99 5.93-.96.16-2.4-4.01-2.4-4.49s17.96-7.7 20.52-5.93z" fill="#ffffff" stroke-width="none" opacity="1"></path><path id="SvgjsPath12218" d="M137.16 73.34c-.06-.14-.21-.52-7.44-6.45l-.03-.03c-2.81-1.93-18.86 4.69-20.61 5.61-.36.19-.69.36-.69.73 0 .59 1.12 3.83 2.15 4.7.23.19.46.29.69.29.05 0 .09 0 .14-.01.34-.06 1.58-.54 4.13-1.54 4.22-1.66 11.28-4.45 12.77-4.38 1.22.04 3.73.7 5.56 1.19 2.69.71 2.95.77 3.24.44l.21-.26-.12-.29zm-6.94-1.8 1.88-1.39c.5.42 1 .83 1.46 1.23l-1.91.48-1.43-.32zm-1.3-3.94-1.48 3.77c-.3.06-.65.14-1.04.25l.13-3.98c1.21-.18 1.99-.18 2.39-.04zm-3.88 4.43-1.08-3.86c.72-.18 1.35-.32 1.92-.42l-.14 4.06c-.23.07-.46.14-.7.22zm-1.25.42-2.22-3.61c.62-.19 1.2-.35 1.74-.49l1.09 3.9c-.19.06-.4.13-.61.2zm-2.07.74-1.7-3.88c.31-.1.6-.19.89-.28l2.24 3.64c-.46.17-.93.34-1.43.52zm-2.33-3.67 1.71 3.9c-.32.12-.64.24-.97.36l-2.26-3.75c.3-.11.61-.21.92-.31.21-.07.4-.13.6-.2zm-1.55 5.15-1.82-3.97c.4-.15.8-.29 1.22-.44l2.27 3.76c-.55.21-1.11.43-1.67.65zm-2.45-3.74 1.83 3.98c-.3.12-.6.24-.91.36-.26-.5-.86-1.56-2.23-3.83.42-.18.86-.34 1.31-.51zm-2.69 5.74-2.2-3.77c.43-.19.94-.41 1.54-.66l1.71 4.02c-.37.15-.72.29-1.05.41zm-1.46.53c-.55-.26-1.6-2.87-1.82-3.78.12-.07.28-.15.48-.25l2.17 3.73c-.4.16-.7.27-.83.3zm3.89-1.48c-.25.1-.51.2-.75.3l-1.72-4.03c.25-.1.51-.21.79-.32.93 1.54 1.88 3.14 2.24 3.83-.18.08-.37.15-.56.22zm13.06-4.45 1.29-3.29c.65.53 1.37 1.13 2.09 1.73l-2.26 1.66c-.38-.06-.73-.1-1.02-.11-.02.01-.07.01-.1.01zm5.89 1.22c-.34-.09-.7-.18-1.07-.28l1.17-.29 1 .86c-.35-.1-.74-.2-1.1-.29z" fill="#000000" stroke-width="none" opacity="1"></path></g></g></g><g id="svga-group-beardwrap"><g id="svga-group-beard-single-move" transform="matrix(1,0,0,1,0,0)"><g id="svga-group-beard-single"><path id="SvgjsPath12551" d="M122.5 112.9c-1.7-2.3-4.1-2.8-6.5-2.2-.7 0-1.4.1-2.2.2-.6 0-1.1 0-1.7.1-3 .3-5.9 1.4-8.9 1.8-1.5.2-2.9.3-4.3.2-3.8-.8-8.3-1.7-12.3-1.5-.7-.1-1.5-.1-2.2-.2-3.2-.2-6.1.9-7.5 4-.3.6-.5 1.2-.6 1.8-.4.9-.8 1.8-1 3-.7 3.3-.1 7.6 1.5 11.6 0 .1 0 .2.1.3.1 5 3.7 9.5 7.5 12.6 1.6 1.3 3.3 2.3 5.2 3.1 0 .1.1.3.3.4 3.2 1.4 7.1 2.2 10.6 1.5 1.6-.1 3.3-.2 4.9-.5 2.7-.4 5-1.3 7-2.4 6.5-2.6 10.3-13 11.1-18.8.6-4.6 1.9-10.9-1-15zm-6.1 12c-.2 1.1-.5 2.1-.8 3.1-1 1.4-1.8 3-3 4.3l-1.8 1.8c-1.7.8-3.5 1.3-5.6 1.3-.1 0-.1-.1-.2-.1-.1-.4-.3-.9-.4-1.3-.1-.8-.1-1.6.2-2.3s-.7-1.2-1.2-.8c-.8 0-1.6.3-2.4.4h-.1c-.7-.2-1.4 0-2.1 0-1 0-1.9-.2-2.9-.3H96c-.7-.3-1.2.5-1.1 1.1 0 .1.1.3.2.4v.1c0 .9-.2 1.8-.7 2.6-.1.1-.2.1-.4.1-.2.1-.4.1-.5.1-2.7-.2-5.2-1.4-7.2-3.2-.5-.5-1-1-1.4-1.6-1.9-2.5-3.1-5.4-3.4-8.5 0-.1-.1-.3-.1-.4v-3.6c.4-.6.8-1.1 1.3-1.4.8-.5 1.6-.7 2.6-.9.4.1.8.1 1.1.1 1.3 0 2.6.1 3.8.1 1.3.2 2.6.4 3.8.6.7.1 1.5.1 2.2.2.3 0 .7.1 1 .1 3 .2 5.9-.1 8.9-.6 1.4-.3 2.7-.6 4-.9.8-.1 1.5-.2 2.2-.4 1.8.3 3.7.5 5.1 1.7 0 .9.1 1.9.1 2.8-.8 1.6-.8 3.6-1.1 5.4z" fill="#000000" stroke-width="none" opacity="1"></path><path id="SvgjsPath12552" d="M86.5 112.6c-2.1 0-4.3.7-5.6 2.4-.2.2.2.6.4.3 1.4-1.5 3.4-1.7 5.2-2.4.3 0 .3-.3 0-.3zm2.4 1c-2-.2-4 .4-5.8 1.2-.3.2-.1.6.3.5 1.8-.8 3.7-1.1 5.6-1.3.2-.1.1-.4-.1-.4zm3.7-.1c-1.3.3-2.5.8-3.8 1.1-.3.1-.2.5.1.5 1.4-.2 2.7-.4 3.9-1.2.1-.2 0-.4-.2-.4zm2.1.2c-.4.1-.7.2-1 .4l-1.1.5c-.4.2-.1.7.3.5.7-.3 1.5-.5 2.1-1 .1-.2-.1-.5-.3-.4zm1.2.3c-.6.2-1.1.7-1.6 1.1-.2.2 0 .6.2.4.5-.3 1.2-.7 1.6-1.1.2-.3 0-.5-.2-.4zm3.2-.3c-.4.2-.7.6-1.1.8l-1.2.9c-.3.2-.1.8.3.6.8-.5 1.8-1.1 2.2-2 .2-.2 0-.4-.2-.3zm.7 1c-.4.6-.6 1.2-.8 1.9-.1.3.4.5.5.2.3-.7.5-1.2.7-1.9 0-.2-.3-.4-.4-.2zm1.6-.6c0-.3-.4-.3-.5 0-.1.8.1 1.9.9 2.4.2.1.4-.1.3-.3-.3-.7-.7-1.3-.7-2.1zm3.9 1.5c-.6-.2-1.1-.4-1.5-1-.2-.3-.6 0-.4.2.4.7 1.1 1.2 1.9 1.1.2 0 .1-.3 0-.3zm3.9-.5c-1-.1-2.1-.3-2.7-1.2-.3-.4-.9 0-.7.4.8 1 2.2 1.8 3.4 1.2.2-.1.1-.4 0-.4zm2.9-.8c-.5-.1-1-.1-1.5-.3-.6-.2-1.1-.5-1.6-.9-.3-.2-.7.2-.4.4.9.8 2.3 1.6 3.5 1.2.2 0 .2-.3 0-.4zm4-.4c-1.1-.4-2.3-.8-3.3-1.4-.3-.2-.5.2-.2.4 1 .7 2.2 1.4 3.5 1.4.2-.1.2-.4 0-.4zm4 .2c-1.6-.7-3.2-1.2-4.6-2.2-.2-.1-.4.2-.2.3 1.2 1.2 3 2.4 4.7 2.4.2 0 .3-.4.1-.5zm2 .2c-.6-.7-1.4-1.2-2-2-.2-.2-.6.1-.4.3.5.7 1.1 1.1 1.7 1.7.6.7 1 1.4 1.4 2.2.1.2.3.1.3-.1-.2-.7-.5-1.4-1-2.1zm-2.3 1.1c-.3-.4-.8.2-.5.5 1.5 1.9 2.3 4 2.2 6.4 0 .1.2.2.3.1 1-2.5-.3-5-2-7zm.6 7.7c0-.2-.4-.2-.4.1.3 2.5.2 4.9.3 7.4 0 .3.4.4.5.1.4-2.6 0-5.2-.4-7.6zm-.9 5.3c-.1-.3-.5-.2-.5.1.4 2.1.3 4 .2 6.1 0 .2.3.2.3 0 .6-1.9.4-4.1 0-6.2zm-.5-9.4c-.1-.3-.5-.2-.5.1.2 1.5.3 3.1.6 4.6.1.2.4.2.4-.1.1-1.5-.3-3.1-.5-4.6zm-.4 4.8c-.1-.3-.5-.2-.4.1.2.9.3 1.8.5 2.6.1.2.4.1.4-.1 0-.7-.3-1.7-.5-2.6zm0 10.7c0-.3-.5-.3-.5 0 .1 2.4-.3 4.7-.6 7.2 0 .3.3.4.4.1.8-2.4.9-4.9.7-7.3zm-1.7-4.8c-.1-.3-.6-.2-.6.1.2 1.3.2 2.6.4 3.9 0 .3.4.4.5.1.3-1.4.1-2.8-.3-4.1zm-1.2 2.9c0-.2-.4-.2-.4 0 .2 3.4-.1 6.8-.4 10.2 0 .2.2.2.3 0 .9-3.3.9-6.8.5-10.2zm-2.6 8.9c-.2 2-.8 3.7-1.3 5.6-.1.2.2.3.3.1.9-1.7 1.2-3.8 1.4-5.7 0-.2-.4-.2-.4 0zm-2.7.8c-.2 1.9-.8 3.7-1.2 5.6-.1.3.3.4.4.2.8-1.8 1.2-3.8 1.3-5.7 0-.3-.5-.4-.5-.1zm-2.4 3.1c-.3.9-.9 1.8-1.3 2.7-.1.2.2.3.3.2.7-.7 1.1-1.8 1.4-2.8.1-.3-.3-.4-.4-.1zm2-9.3c0-.2-.4-.3-.4-.1-.2 1.8-.7 3.7-.7 5.6 0 .3.4.3.5.1.6-1.8.6-3.8.6-5.6zm1.4-.5c-.1 1.5-.4 3-.3 4.5 0 .2.3.3.4.1.3-1.5.3-3.1.4-4.5 0-.4-.5-.4-.5-.1zm2.4-1.9c-.1-.3-.5-.2-.5.1.1 1.1 0 2.3.1 3.4 0 .3.4.3.5.1.3-1.2.1-2.4-.1-3.6zM81 113c-1 .4-1.6 1.4-2.3 2.2-.7 1-1.5 2-1.6 3.2 0 .3.4.4.5.1 1-1.8 2-3.9 3.7-5.2.2-.1-.1-.4-.3-.3zm-2.1 6.4c-1.6 1.5-2.2 3.6-2.2 5.7 0 .2.3.2.3 0 .6-1.9.9-3.9 2.2-5.5.2-.1-.1-.3-.3-.2zm1.5-2.5c-.3.6-.7 1.2-.9 1.8-.1.1.2.2.2.1.4-.5.7-1.1 1-1.7.1-.2-.2-.4-.3-.2zm-2.1 8.1c-.7 1.8-1.1 3.8-.9 5.7 0 .2.3.1.3 0 .3-1.9.4-3.7.8-5.6.1-.2-.1-.2-.2-.1zm-1.9-4.1c-.6.8-1.2 2-.8 2.9.1.2.4.2.5 0 .1-.4.1-.9.2-1.3.1-.5.3-.9.6-1.4.1-.2-.3-.4-.5-.2zm3.9 1.1c-.2 1.1-.4 2.2-.6 3.2 0 .1.2.2.2 0 .4-1.1.5-2.2.7-3.3 0-.1-.3-.1-.3.1zm-.2 6.9c0-.2-.4-.3-.4-.1-.4 1.9-.6 4-.2 5.9.1.2.4.2.4-.1.2-1.9.1-3.8.2-5.7zm1.6 5.2c0-.3-.5-.2-.5.1.1 1.4.3 2.8.9 4.1.1.2.3.1.3-.1-.2-1.4-.6-2.7-.7-4.1zm.4-6.8c0-.3-.4-.3-.5 0-.2 1.5-.4 3.2.1 4.7.1.2.5.2.5-.1-.1-1.5-.3-3-.1-4.6zm1.4 4.3c0-.2-.5-.2-.4.1.1 1.3.1 2.8.4 4.1.1.2.4.2.4-.1 0-1.4-.2-2.8-.4-4.1zm2.5 12.3c-.7-1.8-1.3-3.4-1.8-5.2-.1-.2-.4-.2-.4.1.1 1.9.7 4 1.9 5.4.1.2.4-.1.3-.3zm2.3 1c-.8-2-1.7-3.8-2.2-5.9-.1-.3-.5-.2-.4.1.4 2.1 1.1 4.2 2.3 5.9.1.3.4.1.3-.1zm-2.1-11.7c0-.2-.3-.3-.4-.1-.5 1.4-.6 3 0 4.4.1.2.5.1.5-.1-.1-1.5-.2-2.8-.1-4.2zM88 135c-.1-.2-.4-.1-.4.1.2 1.4.3 3 .8 4.4.1.2.4.2.4-.1-.1-1.5-.5-3-.8-4.4zm4.6 11.8c-1.5-1.9-2.7-3.6-3-6.1 0-.2-.5-.2-.4.1.2 2.4 1.2 4.9 3.2 6.3.1.1.3-.2.2-.3zm2.4 1.4c-.3-.6-.8-1.1-1.1-1.6-.4-.6-.7-1.1-1-1.8-.1-.3-.5 0-.4.2.5 1.2 1.2 2.7 2.3 3.4.1.2.3 0 .2-.2zm.8-2.9c-.2-.4-.8-.1-.7.3.5 1.2 1 2.6 2 3.5.1.1.4 0 .3-.2-.3-1.3-1.1-2.4-1.6-3.6zm-4.6-9.2c0-.3-.4-.3-.4 0-.1 2 .2 4.2 1.3 5.9.1.2.5.1.4-.2-.6-1.9-1.2-3.7-1.3-5.7zm2.8 2.3c0-.3-.6-.3-.5 0 .1 1.7.5 3.7 1.6 5.1.1.2.4 0 .4-.2-.6-1.7-1.3-3.1-1.5-4.9zm2.5-5.5c.1-.3-.4-.5-.5-.1-.4 1.9-.6 3.9 0 5.8.1.2.4.2.4-.1-.1-1.9-.2-3.7.1-5.6zm1.4 4.4c0-.4-.5-.4-.6 0-.1 2.1.1 4.4 1.2 6.3.2.3.6.1.5-.2-.4-2.1-1-4-1.1-6.1zm1.3 9.8c-.7-1.5-1.5-2.9-2-4.5-.1-.3-.5-.2-.4.1.5 1.6 1.1 3.3 2.2 4.6 0 .2.3 0 .2-.2zm2.1-1.9c0-.2-.3-.2-.3 0-.3 1.1-.3 2.3-.4 3.4 0 .3.5.3.5 0 .1-1.2.3-2.3.2-3.4zm3.1-.7c0-.3-.4-.4-.5-.1-.4 1.2-.5 2.5-1 3.7-.1.4.4.6.6.2.6-1.1 1.1-2.5.9-3.8zm1.9-1.2c-.4 1.4-.8 2.9-1.1 4.4-.1.3.4.4.5.1.4-1.5.8-2.9 1.1-4.4 0-.3-.4-.4-.5-.1zm.8-4.5c-.1-.2-.4-.1-.4.1 0 1 .2 2-.1 3-.1.4.5.5.6.2.3-1 .4-2.3-.1-3.3zm-3.3.7c-.1-.2-.4-.2-.5 0-.2 1-.2 2.2-.2 3.3 0 .4.5.4.6.1.2-1.1.3-2.3.1-3.4zm-2.2.5c0-.2-.3-.3-.4-.1-.3.9-.2 2.1 0 3 .1.3.5.2.5-.1-.1-.9 0-1.9-.1-2.8zm3.9-3.8c0-.3-.5-.3-.5 0 0 .8-.2 1.8 0 2.6.1.2.4.2.4 0 .3-.8.1-1.8.1-2.6zm-2.7-1.4c0-.3-.5-.3-.5 0 0 1.1-.2 2.1-.4 3.1 0 .2.3.3.4.1.6-.9.6-2.1.5-3.2zm-3.1 1.1c-.2 1.1-.5 2.7-.2 3.7.1.2.4.2.4 0 .2-.5.2-1.1.2-1.7 0-.6.1-1.3.2-1.9.1-.3-.5-.4-.6-.1zm-1.1-3.6c0-.3-.4-.3-.5 0-.1 1.1-.2 2.3.1 3.4.1.2.4.2.4-.1.2-1.1 0-2.2 0-3.3zm1.5.2c0-.3-.4-.3-.5 0-.1.7-.1 1.5.3 2.2.1.1.3.1.3-.1 0-.7-.1-1.4-.1-2.1zm1.4.7c0 .3-.1.6-.1.9 0 .1.2.1.2 0 .1-.3.1-.6.1-.9.1-.2-.2-.2-.2 0zm1.9-.2v.8c0 .1.1.1.1 0v-.8c.1-.1-.1-.1-.1 0z" fill="#ffffff" stroke-width="none" opacity="1"></path></g></g></g><g id="svga-group-mustache-single-move" transform="matrix(1,0,0,1,0,0)"><g id="svga-group-mustache-single"></g></g><g id="svga-group-nose-single-move" transform="matrix(1,0,0,1,0,0)"><g id="svga-group-nose-single"><path id="SvgjsPath12561" d="M107.56 107.36c.81-.3 1.49-2.07 1.08-3.48-.41-1.41-3.64-4.3-7.2-4.88-3.56-.58-10.1 0-11.84 3.15-1.74 3.15-.33 5.38 1.08 5.38s4.47-1.16 4.47-1.16 2.15 1.74 3.56 1.74 4.72-1.66 4.72-1.66 2.31 1.57 4.13.91z" fill="#ffffff" stroke-width="none" opacity="1"></path><path id="SvgjsPath12562" d="M107.91 105.78c-.8-.68-2.14-.72-3.09-.49-2.6.6-4.35 2.98-7.21 1.73-1.73-.76-3.19-2.15-5.16-2.3-.92-.07-2.33.14-2.9.97-.52.75-.06 1.53.68 1.91 1.31.67 3.15-.13 4.41-.74 1.35.73 2.59 1.71 4.16 1.92 1.54.21 2.86-.48 4.17-1.19.24-.13.47-.25.7-.37 1.15.55 3.04 1.28 4.18.46.71-.51.7-1.35.06-1.9zm-17.14.61c.31-.46 1.31-.38 2-.23-.11.03-.22.07-.33.1-.19.05-1.64.09-1.67.13z" fill="#000000" stroke-width="none" opacity="1"></path><path id="SvgjsPath12563" d="M95.63 96.37c-.15-7.79.12-15.57.8-23.33.08-.87-1.28-.86-1.36 0-.68 7.76-.95 15.54-.8 23.33.02.87 1.38.88 1.36 0z" fill="#000000" stroke-width="none" opacity="1"></path></g></g><g id="svga-group-hair-front"><path id="SvgjsPath12522" d="M76.9 39.3s-9.6.7-12.1 11.2c-2.2 9.4 2.8 64-18.3 77.1 0 0 9.8-12.5 8.6-26.8-1.2-14.3-2.7-40.4-1.5-52S60.7 29.5 72 26.5c0 0 2.7-14.3 27.9-16.6s36 9.8 42.2 22.6 4.8 28.5 2.1 49.9-3.6 37.2 5.6 46.7c0 0-11.9-2.7-16.1-19.9s9.6-33.6 1.6-57.1c-4.4-12.9-10.8-14.8-14.6-13.1-3.7 1.8-21.5 8.1-43.8.3z" fill="#ffffff" stroke-width="none" opacity="1"></path><path id="SvgjsPath12523" d="M150.7 128.4c-9.1-9.4-7.9-25.6-5.4-45.9 2.8-22.1 4.1-37.6-2.2-50.5-5.4-11.1-15.8-25.7-43.1-23.1-23 2.2-27.8 13.9-28.7 16.8-11.1 3.1-17.4 10.9-18.6 23-1.3 12.2.4 39.5 1.5 52.2 1.1 13.7-8.3 25.9-8.4 26.1-.3.4-.3.9 0 1.3s.9.4 1.3.2C63.7 118.2 64.5 84.1 65 63.7c.2-6 .3-10.8.8-12.9 2.1-9 9.6-10.3 11-10.4 24.8 8.5 43.7 0 44.5-.4 1-.4 2.5-.8 4.5 0 2.4 1 5.9 4 8.7 12.4 4.4 13 2.1 23.5-.1 33.8-1.7 7.9-3.4 15.5-1.5 23.2 4.3 17.6 16.3 20.5 16.8 20.7h.2c.4 0 .7-.2.9-.5.3-.4.2-.9-.1-1.2zM88.9 13.1c-7.7 5.1-12.3 14.1-11.3 24.1-2.4-3.5-3.8-7.4-4.1-11.7 1-2.7 4.5-8.9 15.4-12.4zM51.2 122.2c2.7-5.1 5.7-12.9 5-21.4C55.1 88.1 53.5 61 54.7 49c1.2-11.4 7.1-18.6 17.7-21.4h.1c.5 3.2 1.5 6.2 3.1 8.9-9.4-4.3-17.3 6.6-18.5 15.4-2.3 17 6.8 33.5 2.4 50.4v.3c-1.7 7.7-4.3 14.7-8.3 19.6zm12.6-71.9c-.6 2.3-.7 6.9-.8 13.3-.2 6.8-.4 15.3-1.2 23.8-.5-6-1.7-12.1-2.6-18.1-1.1-6.8-2-14.3-.1-21.1 2.2-7.4 9.7-14.6 17.4-9.8-1.5.2-10.3 1.8-12.7 11.9zm25.2-9c-7.1-11.3 8.2-20.6 17.7-22.4 9.9-1.8 19.2 1.3 25.9 8.1-5.3-3.9-11.8-5.8-18.5-3.6-7.8 2.5-12.5 10.7-9.8 18.5-4.4.4-9.6.3-15.3-.6zm31.5-3.2c-.4.2-6 2.7-14.9 3.6-3.1-8.7 3.5-16.9 12.3-17.8 8-.9 14.8 3.5 19.7 9.4 9.1 15 5.6 33-.2 49 1-5.1 1.9-10.6 1.7-16.6l.2-.2c3.6-7.7 4.4-17.7-.9-24.8-3.8-5.1-10.6-6.8-15.8-3.2-.9.2-1.5.4-2.1.6zm16 13.7c-3.1-9.1-7.1-12.4-9.8-13.6-.6-.3-1.3-.4-1.9-.6 6.4-3 13.1 2.6 15.1 9 1.8 5.5 1.2 11.3-.9 16.6-.5-3.6-1.2-7.4-2.5-11.4zm-1.6 57.2c-1.5-6.3-.6-12.5.8-19.1 8.6-21.4 15.7-50.2-5.4-66.7-9-7.1-21-7.8-31.4-3.2-8 3.6-16.2 12.2-11.6 21-2.7-.5-5.5-1.2-8.4-2.1v-.3c-2-12 4.7-23 15.3-27 1.8-.3 3.7-.6 5.8-.8 25.8-2.4 35.6 10.5 41.2 22 6 12.4 4.7 27.6 2 49.4-2.3 18.7-3.5 34 3.3 44.2-3.5-2-9-6.9-11.6-17.4z" fill="#000000" stroke-width="none" opacity="1"></path></g><g id="svga-group-glasses-single-move" transform="matrix(1,0,0,1,0,-2)"><g id="svga-group-glasses-single" transform="matrix(0.8999996000000001,0,0,0.8999996000000001,9.965423391197191,9.014482316329946)"></g></g></g></g></g><rect id="svga-credit-rect" width="200" height="15" x="0" y="185" fill="#ecf0f1" opacity="0.5" style="display: none;"></rect><text id="svga-credit-text" font-family="Avenir Next, Roboto, Helvetica, Arial, sans-serif" font-size="10px" text-anchor="start" font-weight="400" size="10px" anchor="start" weight="400" fill="#333333" x="33.311859130859375" y="182.60824728012085" style="display: none;"><tspan id="SvgjsTspan12204" dy="13" x="33.311859130859375">Created on AvatarMaker.com</tspan></text></g><defs id="SvgjsDefs12151"><linearGradient id="SvgjsLinearGradient12441" x1="77.6155" y1="73.6654" x2="77.6155" y2="106.6202" gradientUnits="userSpaceOnUse" class="svga-on-canvas-glasses-gradient-single-0-null"><stop id="SvgjsStop12442" stop-opacity="1" stop-color="#000000" offset="0" ></stop><stop id="SvgjsStop12443" stop-opacity="0" stop-color="#000000" offset="1" ></stop></linearGradient><linearGradient id="SvgjsLinearGradient12445" x1="32.7833" y1="73.6654" x2="32.7833" y2="106.6202" gradientTransform="matrix(-1 0 0 1 154.4999 0)" gradientUnits="userSpaceOnUse" class="svga-on-canvas-glasses-gradient-single-1-null"><stop id="SvgjsStop12446" stop-opacity="1" stop-color="#000000" offset="0" ></stop><stop id="SvgjsStop12447" stop-opacity="0" stop-color="#000000" offset="1" ></stop></linearGradient></defs></svg>